<svg width="100" height="100" viewBox="0 0 100 100" fill="none" xmlns="http://www.w3.org/2000/svg">
<g clip-path="url(#clip0_10_3)">
<rect width="100" height="100" rx="50" fill="white"/>
<path d="M53.6923 46.7208C50.7385 45.7856 47.5385 46.3312 46.3077 46.7208C44.6275 37.3066 40.259 23.7434 36.2265 46.3377C32.4828 67.3139 34.2422 90.5891 35.8578 101.662H64.1422C65.7578 90.5891 67.5172 67.3139 63.7735 46.3377C59.741 23.7434 55.3725 37.3066 53.6923 46.7208Z" fill="#FFBC6D"/>
<path d="M49.9993 58C54.8723 58 61.5619 64.1017 61.9944 69.1864C62.4269 74.2712 37.6294 74.2712 38.0042 69.1864C38.3791 64.1017 45.1263 58 49.9993 58Z" fill="#EDDFDF"/>
<path d="M45 47.2887C41.0481 48.8891 38.0842 47.2887 38.0842 47.2887C37.8569 46.4621 37.9776 43.3211 39.8866 37.3697C41.7956 31.4184 45 46.7553 45 47.2887Z" fill="#F2ACDE" fill-opacity="0.65"/>
<path d="M45 47.2887C41.0481 48.8891 38.0842 47.2887 38.0842 47.2887C37.8569 46.4621 37.9776 43.3211 39.8866 37.3697C41.7956 31.4184 45 46.7553 45 47.2887Z" fill="#F2ACDE" fill-opacity="0.65"/>
<path d="M45 47.2887C41.0481 48.8891 38.0842 47.2887 38.0842 47.2887C37.8569 46.4621 37.9776 43.3211 39.8866 37.3697C41.7956 31.4184 45 46.7553 45 47.2887Z" fill="#F2ACDE" fill-opacity="0.65"/>
<path d="M55 47.2887C58.9519 48.8891 61.9158 47.2887 61.9158 47.2887C62.1431 46.4621 62.0224 43.3211 60.1134 37.3697C58.2044 31.4184 55 46.7553 55 47.2887Z" fill="#F2ACDE" fill-opacity="0.65"/>
<path d="M55 47.2887C58.9519 48.8891 61.9158 47.2887 61.9158 47.2887C62.1431 46.4621 62.0224 43.3211 60.1134 37.3697C58.2044 31.4184 55 46.7553 55 47.2887Z" fill="#F2ACDE" fill-opacity="0.65"/>
<path d="M55 47.2887C58.9519 48.8891 61.9158 47.2887 61.9158 47.2887C62.1431 46.4621 62.0224 43.3211 60.1134 37.3697C58.2044 31.4184 55 46.7553 55 47.2887Z" fill="#F2ACDE" fill-opacity="0.65"/>
<path d="M50 67V71" stroke="black" stroke-width="0.2" stroke-linecap="round"/>
<path d="M50.7411 63.7151C50.3157 64.095 49.6843 64.095 49.2589 63.7151L47.3932 62.0494C46.6009 61.342 47.0862 60 48.1344 60H51.8656C52.9138 60 53.3991 61.342 52.6068 62.0494L50.7411 63.7151Z" fill="#111111"/>
<path d="M48.0019 67.1253C49.1301 66.9854 49.7759 65.9707 50 65C50.2242 65.9712 50.8705 66.9865 51.9999 67.1255C52.024 73.6243 48.1237 73.6255 48.0019 67.1253Z" fill="#8D0000" fill-opacity="0.5"/>
<path d="M46 66.5993C48.4 67.9856 49.6667 66.4441 50 65C50.3333 66.4441 51.6 67.9856 54 66.5993M48 67C48.0742 73.6673 52.0746 73.666 51.9989 67" stroke="black" stroke-width="0.5"/>
<path d="M42 54.6626C43.4545 54.1626 46.3636 53.4626 46.3636 54.6626M58 54.6626C56.5455 54.1626 53.6364 53.4626 53.6364 54.6626M45.8788 56.5C45.8788 57.3284 45.2276 58 44.4242 58C43.6209 58 42.9697 57.3284 42.9697 56.5C42.9697 55.6716 43.6209 55 44.4242 55C45.2276 55 45.8788 55.6716 45.8788 56.5ZM56.5455 56.5C56.5455 57.3284 55.8942 58 55.0909 58C54.2876 58 53.6364 57.3284 53.6364 56.5C53.6364 55.6716 54.2876 55 55.0909 55C55.8942 55 56.5455 55.6716 56.5455 56.5Z" stroke="black" stroke-width="0.2" stroke-linecap="round"/>
<path d="M42.158 77.2314C44.3985 74.2562 55.6015 74.2562 57.842 77.2314C60.0826 80.2066 64.5638 105 60.0826 105C55.6015 105 44.3985 105 39.9174 105C35.4362 105 39.9174 80.2066 42.158 77.2314Z" fill="#EDDFDF"/>
<circle cx="44.2" cy="56.2" r="0.2" fill="#D9D9D9"/>
<circle cx="54.2" cy="56.2" r="0.2" fill="#D9D9D9"/>
</g>
<defs>
<clipPath id="clip0_10_3">
<rect width="100" height="100" rx="50" fill="white"/>
</clipPath>
</defs>
</svg>
